<?xml version="1.0" encoding="UTF-8"?>
<svg xmlns="http://www.w3.org/2000/svg" xmlns:xlink="http://www.w3.org/1999/xlink" width="20px" height="22px" viewBox="0 0 20 22" version="1.1">
<g id="surface1">
<path style=" stroke:none;fill-rule:nonzero;fill:rgb(100%,100%,100%);fill-opacity:1;" d="M 17.003906 4.171875 C 15.132812 2.367188 12.644531 1.375 9.996094 1.375 C 4.53125 1.375 0.0859375 5.65625 0.0859375 10.914062 C 0.0859375 12.59375 0.539062 14.234375 1.40625 15.683594 L 0 20.625 L 5.253906 19.296875 C 6.699219 20.058594 8.332031 20.457031 9.992188 20.457031 L 9.996094 20.457031 C 15.457031 20.457031 20 16.179688 20 10.917969 C 20 8.371094 18.875 5.976562 17.003906 4.171875 Z M 9.996094 18.851562 C 8.511719 18.851562 7.0625 18.46875 5.800781 17.746094 L 5.5 17.574219 L 2.382812 18.359375 L 3.214844 15.433594 L 3.019531 15.132812 C 2.191406 13.871094 1.757812 12.414062 1.757812 10.914062 C 1.757812 6.542969 5.457031 2.984375 10 2.984375 C 12.199219 2.984375 14.269531 3.8125 15.820312 5.3125 C 17.375 6.8125 18.332031 8.800781 18.324219 10.917969 C 18.324219 15.292969 14.535156 18.851562 9.996094 18.851562 Z M 14.511719 12.914062 C 14.269531 12.792969 13.050781 12.214844 12.820312 12.140625 C 12.59375 12.058594 12.429688 12.019531 12.261719 12.257812 C 12.097656 12.5 11.625 13.03125 11.476562 13.195312 C 11.335938 13.355469 11.1875 13.375 10.941406 13.257812 C 9.488281 12.554688 8.53125 12.003906 7.570312 10.421875 C 7.316406 10 7.824219 10.027344 8.300781 9.117188 C 8.378906 8.960938 8.339844 8.820312 8.277344 8.703125 C 8.214844 8.582031 7.71875 7.40625 7.511719 6.929688 C 7.3125 6.46875 7.105469 6.53125 6.957031 6.523438 C 6.8125 6.515625 6.648438 6.515625 6.480469 6.515625 C 6.316406 6.515625 6.050781 6.574219 5.820312 6.8125 C 5.59375 7.050781 4.957031 7.628906 4.957031 8.800781 C 4.957031 9.972656 5.84375 11.109375 5.964844 11.265625 C 6.089844 11.425781 7.710938 13.832031 10.195312 14.867188 C 11.769531 15.519531 12.382812 15.578125 13.167969 15.464844 C 13.648438 15.394531 14.632812 14.890625 14.839844 14.332031 C 15.042969 13.773438 15.042969 13.292969 14.980469 13.195312 C 14.925781 13.089844 14.757812 13.027344 14.511719 12.914062 Z M 14.511719 12.914062 "/>
</g>
</svg>
