<svg xmlns="http://www.w3.org/2000/svg" xmlns:xlink="http://www.w3.org/1999/xlink" width="100" zoomAndPan="magnify" viewBox="0 0 75 30.000001" height="40" preserveAspectRatio="xMidYMid meet" version="1.2"><defs><clipPath id="f53340b6cc"><path d="M 22.644531 1.445312 L 45 1.445312 L 45 13 L 22.644531 13 Z M 22.644531 1.445312 "/></clipPath><clipPath id="c2b1dbbea4"><path d="M 32 1.445312 L 55.304688 1.445312 L 55.304688 13 L 32 13 Z M 32 1.445312 "/></clipPath></defs><g id="e725645c0c"><g clip-rule="nonzero" clip-path="url(#f53340b6cc)"><path style=" stroke:none;fill-rule:nonzero;fill:#ddaba0;fill-opacity:1;" d="M 26.796875 12.5625 L 22.644531 12.5625 L 33.742188 1.464844 L 44.84375 12.5625 L 40.691406 12.5625 L 33.742188 5.617188 Z M 29.660156 3.339844 L 26.726562 3.339844 L 26.726562 6.832031 L 29.660156 3.996094 Z M 29.660156 3.339844 "/></g><g clip-rule="nonzero" clip-path="url(#c2b1dbbea4)"><path style=" stroke:none;fill-rule:nonzero;fill:#545454;fill-opacity:1;" d="M 41.929688 7.9375 L 39.855469 5.859375 L 44.207031 1.507812 L 55.304688 12.605469 L 51.152344 12.605469 L 44.207031 5.660156 Z M 33.476562 9.898438 L 33.476562 8.980469 L 32.554688 8.980469 L 32.554688 9.898438 Z M 35.003906 9.898438 L 35.003906 8.980469 L 34.085938 8.980469 L 34.085938 9.898438 Z M 33.476562 11.40625 L 33.476562 10.488281 L 32.554688 10.488281 L 32.554688 11.40625 Z M 35.003906 11.40625 L 35.003906 10.488281 L 34.085938 10.488281 L 34.085938 11.40625 Z M 35.003906 11.40625 "/></g><g style="fill:#ddaba0;fill-opacity:1;"><g transform="translate(7.503214, 23.629289)"><path style="stroke:none" d="M 7.546875 0 L 5.453125 0 L 2.640625 -3.890625 L 2.640625 0 L 0.90625 0 L 0.90625 -7.96875 L 2.640625 -7.96875 L 2.640625 -4.28125 L 5.25 -7.96875 L 7.25 -7.96875 L 4.53125 -4.15625 Z M 7.546875 0 "/></g></g><g style="fill:#ddaba0;fill-opacity:1;"><g transform="translate(14.312786, 23.629289)"><path style="stroke:none" d="M 6.75 -3.09375 C 6.75 -2.9375 6.738281 -2.773438 6.71875 -2.609375 L 2.078125 -2.609375 C 2.148438 -2.191406 2.316406 -1.867188 2.578125 -1.640625 C 2.847656 -1.421875 3.179688 -1.3125 3.578125 -1.3125 C 3.867188 -1.3125 4.128906 -1.375 4.359375 -1.5 C 4.585938 -1.625 4.757812 -1.796875 4.875 -2.015625 L 6.625 -2.015625 C 6.40625 -1.347656 6.019531 -0.816406 5.46875 -0.421875 C 4.925781 -0.0234375 4.296875 0.171875 3.578125 0.171875 C 2.972656 0.171875 2.429688 0.03125 1.953125 -0.25 C 1.472656 -0.539062 1.09375 -0.929688 0.8125 -1.421875 C 0.53125 -1.910156 0.390625 -2.460938 0.390625 -3.078125 C 0.390625 -3.691406 0.53125 -4.238281 0.8125 -4.71875 C 1.09375 -5.207031 1.472656 -5.59375 1.953125 -5.875 C 2.429688 -6.164062 2.972656 -6.3125 3.578125 -6.3125 C 4.210938 -6.3125 4.765625 -6.164062 5.234375 -5.875 C 5.710938 -5.582031 6.082031 -5.191406 6.34375 -4.703125 C 6.613281 -4.222656 6.75 -3.6875 6.75 -3.09375 Z M 3.578125 -4.90625 C 3.210938 -4.90625 2.898438 -4.800781 2.640625 -4.59375 C 2.390625 -4.382812 2.21875 -4.101562 2.125 -3.75 L 5.09375 -3.75 C 4.851562 -4.519531 4.347656 -4.90625 3.578125 -4.90625 Z M 3.578125 -4.90625 "/></g></g><g style="fill:#ddaba0;fill-opacity:1;"><g transform="translate(20.804046, 23.629289)"><path style="stroke:none" d="M 3.65625 0.171875 C 3.039062 0.171875 2.484375 0.03125 1.984375 -0.25 C 1.492188 -0.539062 1.101562 -0.929688 0.8125 -1.421875 C 0.53125 -1.921875 0.390625 -2.476562 0.390625 -3.09375 C 0.390625 -3.707031 0.53125 -4.253906 0.8125 -4.734375 C 1.101562 -5.222656 1.492188 -5.609375 1.984375 -5.890625 C 2.484375 -6.171875 3.039062 -6.3125 3.65625 -6.3125 C 4.1875 -6.3125 4.671875 -6.207031 5.109375 -6 C 5.546875 -5.789062 5.910156 -5.492188 6.203125 -5.109375 C 6.492188 -4.734375 6.691406 -4.296875 6.796875 -3.796875 L 5.140625 -3.796875 C 5.003906 -4.097656 4.804688 -4.332031 4.546875 -4.5 C 4.285156 -4.664062 3.988281 -4.75 3.65625 -4.75 C 3.351562 -4.75 3.082031 -4.675781 2.84375 -4.53125 C 2.601562 -4.382812 2.414062 -4.1875 2.28125 -3.9375 C 2.144531 -3.6875 2.078125 -3.398438 2.078125 -3.078125 C 2.078125 -2.765625 2.144531 -2.476562 2.28125 -2.21875 C 2.414062 -1.96875 2.601562 -1.765625 2.84375 -1.609375 C 3.082031 -1.460938 3.351562 -1.390625 3.65625 -1.390625 C 3.988281 -1.390625 4.28125 -1.476562 4.53125 -1.65625 C 4.789062 -1.832031 4.992188 -2.085938 5.140625 -2.421875 L 6.8125 -2.421875 C 6.71875 -1.910156 6.519531 -1.457031 6.21875 -1.0625 C 5.925781 -0.675781 5.554688 -0.375 5.109375 -0.15625 C 4.671875 0.0625 4.1875 0.171875 3.65625 0.171875 Z M 3.65625 0.171875 "/></g></g><g style="fill:#ddaba0;fill-opacity:1;"><g transform="translate(27.261201, 23.629289)"><path style="stroke:none" d="M 4.3125 -6.296875 C 5.007812 -6.296875 5.554688 -6.0625 5.953125 -5.59375 C 6.359375 -5.132812 6.5625 -4.515625 6.5625 -3.734375 L 6.5625 0 L 4.90625 0 L 4.90625 -3.453125 C 4.90625 -3.910156 4.820312 -4.253906 4.65625 -4.484375 C 4.488281 -4.710938 4.210938 -4.828125 3.828125 -4.828125 C 3.421875 -4.828125 3.085938 -4.6875 2.828125 -4.40625 C 2.578125 -4.125 2.453125 -3.734375 2.453125 -3.234375 L 2.453125 0 L 0.796875 0 L 0.796875 -8.359375 L 2.453125 -8.359375 L 2.453125 -5.578125 C 2.691406 -5.796875 2.96875 -5.96875 3.28125 -6.09375 C 3.601562 -6.226562 3.945312 -6.296875 4.3125 -6.296875 Z M 4.3125 -6.296875 "/></g></g><g style="fill:#545454;fill-opacity:1;"><g transform="translate(35.601859, 23.740834)"><path style="stroke:none" d="M 2.078125 -0.9375 L 5.578125 -0.9375 L 5.578125 0 L 1.09375 0 L 1.09375 -7.96875 L 2.078125 -7.96875 Z M 2.078125 -0.9375 "/></g></g><g style="fill:#545454;fill-opacity:1;"><g transform="translate(40.77439, 23.740834)"><path style="stroke:none" d="M 0.9375 -7.21875 L 0.9375 -8.3125 L 1.984375 -8.3125 L 1.984375 -7.21875 Z M 0.984375 0 L 0.984375 -6.140625 L 1.9375 -6.140625 L 1.9375 0 Z M 0.984375 0 "/></g></g><g style="fill:#545454;fill-opacity:1;"><g transform="translate(43.036625, 23.740834)"><path style="stroke:none" d="M 5.3125 -6.140625 L 6.296875 -6.140625 L 3.703125 0 L 2.828125 0 L 0.171875 -6.140625 L 1.1875 -6.140625 L 3.265625 -1.25 Z M 5.3125 -6.140625 "/></g></g><g style="fill:#545454;fill-opacity:1;"><g transform="translate(48.891257, 23.740834)"><path style="stroke:none" d="M 0.9375 -7.21875 L 0.9375 -8.3125 L 1.984375 -8.3125 L 1.984375 -7.21875 Z M 0.984375 0 L 0.984375 -6.140625 L 1.9375 -6.140625 L 1.9375 0 Z M 0.984375 0 "/></g></g><g style="fill:#545454;fill-opacity:1;"><g transform="translate(51.153492, 23.740834)"><path style="stroke:none" d="M 4.046875 -6.28125 C 4.535156 -6.28125 4.957031 -6.164062 5.3125 -5.9375 C 5.664062 -5.71875 5.9375 -5.410156 6.125 -5.015625 C 6.320312 -4.617188 6.421875 -4.171875 6.421875 -3.671875 L 6.421875 0 L 5.453125 0 L 5.453125 -3.453125 C 5.453125 -4.078125 5.304688 -4.554688 5.015625 -4.890625 C 4.734375 -5.222656 4.328125 -5.390625 3.796875 -5.390625 C 3.453125 -5.390625 3.140625 -5.300781 2.859375 -5.125 C 2.578125 -4.945312 2.351562 -4.703125 2.1875 -4.390625 C 2.019531 -4.078125 1.9375 -3.734375 1.9375 -3.359375 L 1.9375 0 L 0.984375 0 L 0.984375 -6.140625 L 1.65625 -6.140625 L 1.859375 -5.171875 C 2.085938 -5.515625 2.390625 -5.785156 2.765625 -5.984375 C 3.140625 -6.179688 3.566406 -6.28125 4.046875 -6.28125 Z M 4.046875 -6.28125 "/></g></g><g style="fill:#545454;fill-opacity:1;"><g transform="translate(57.803907, 23.740834)"><path style="stroke:none" d="M 6.046875 -6.140625 L 6.703125 -6.140625 L 6.703125 -0.859375 C 6.703125 0.128906 6.429688 0.90625 5.890625 1.46875 C 5.347656 2.039062 4.613281 2.328125 3.6875 2.328125 C 2.9375 2.328125 2.304688 2.140625 1.796875 1.765625 C 1.285156 1.398438 0.945312 0.890625 0.78125 0.234375 L 1.734375 0.234375 C 1.867188 0.617188 2.113281 0.914062 2.46875 1.125 C 2.832031 1.332031 3.238281 1.4375 3.6875 1.4375 C 4.300781 1.4375 4.796875 1.242188 5.171875 0.859375 C 5.554688 0.472656 5.75 -0.0546875 5.75 -0.734375 L 5.75 -1.109375 C 5.46875 -0.828125 5.132812 -0.601562 4.75 -0.4375 C 4.375 -0.269531 3.960938 -0.1875 3.515625 -0.1875 C 2.941406 -0.1875 2.425781 -0.320312 1.96875 -0.59375 C 1.507812 -0.863281 1.144531 -1.226562 0.875 -1.6875 C 0.613281 -2.144531 0.484375 -2.660156 0.484375 -3.234375 C 0.484375 -3.804688 0.613281 -4.320312 0.875 -4.78125 C 1.144531 -5.238281 1.507812 -5.601562 1.96875 -5.875 C 2.425781 -6.144531 2.941406 -6.28125 3.515625 -6.28125 C 4.003906 -6.28125 4.453125 -6.179688 4.859375 -5.984375 C 5.273438 -5.785156 5.617188 -5.519531 5.890625 -5.1875 Z M 3.625 -1.125 C 4.03125 -1.125 4.390625 -1.210938 4.703125 -1.390625 C 5.023438 -1.578125 5.28125 -1.828125 5.46875 -2.140625 C 5.65625 -2.460938 5.75 -2.828125 5.75 -3.234375 C 5.75 -3.640625 5.65625 -4 5.46875 -4.3125 C 5.28125 -4.632812 5.023438 -4.882812 4.703125 -5.0625 C 4.390625 -5.25 4.03125 -5.34375 3.625 -5.34375 C 3.207031 -5.34375 2.835938 -5.25 2.515625 -5.0625 C 2.191406 -4.882812 1.9375 -4.632812 1.75 -4.3125 C 1.570312 -3.988281 1.484375 -3.628906 1.484375 -3.234375 C 1.484375 -2.828125 1.570312 -2.460938 1.75 -2.140625 C 1.9375 -1.828125 2.191406 -1.578125 2.515625 -1.390625 C 2.835938 -1.210938 3.207031 -1.125 3.625 -1.125 Z M 3.625 -1.125 "/></g></g><g style="fill:#242424;fill-opacity:1;"><g transform="translate(8.161292, 26.272818)"><path style="stroke:none" d="M 0.1875 -1.25 L 0.71875 -1.25 C 0.84375 -1.25 0.957031 -1.222656 1.0625 -1.171875 C 1.164062 -1.117188 1.242188 -1.046875 1.296875 -0.953125 C 1.359375 -0.859375 1.390625 -0.75 1.390625 -0.625 C 1.390625 -0.5 1.359375 -0.390625 1.296875 -0.296875 C 1.242188 -0.203125 1.164062 -0.128906 1.0625 -0.078125 C 0.957031 -0.0234375 0.84375 0 0.71875 0 L 0.1875 0 Z M 0.703125 -0.15625 C 0.804688 -0.15625 0.894531 -0.171875 0.96875 -0.203125 C 1.039062 -0.242188 1.097656 -0.300781 1.140625 -0.375 C 1.179688 -0.445312 1.203125 -0.53125 1.203125 -0.625 C 1.203125 -0.71875 1.179688 -0.796875 1.140625 -0.859375 C 1.097656 -0.929688 1.039062 -0.988281 0.96875 -1.03125 C 0.894531 -1.070312 0.804688 -1.09375 0.703125 -1.09375 L 0.359375 -1.09375 L 0.359375 -0.15625 Z M 0.703125 -0.15625 "/></g></g><g style="fill:#242424;fill-opacity:1;"><g transform="translate(9.657667, 26.272818)"><path style="stroke:none" d="M 1.09375 -0.15625 L 1.09375 0 L 0.1875 0 L 0.1875 -1.25 L 1.0625 -1.25 L 1.0625 -1.09375 L 0.359375 -1.09375 L 0.359375 -0.703125 L 0.984375 -0.703125 L 0.984375 -0.5625 L 0.359375 -0.5625 L 0.359375 -0.15625 Z M 1.09375 -0.15625 "/></g></g><g style="fill:#242424;fill-opacity:1;"><g transform="translate(10.876804, 26.272818)"><path style="stroke:none" d="M 0.546875 0.015625 C 0.453125 0.015625 0.359375 0 0.265625 -0.03125 C 0.179688 -0.0625 0.117188 -0.0976562 0.078125 -0.140625 L 0.140625 -0.28125 C 0.179688 -0.238281 0.238281 -0.203125 0.3125 -0.171875 C 0.394531 -0.148438 0.472656 -0.140625 0.546875 -0.140625 C 0.648438 -0.140625 0.726562 -0.15625 0.78125 -0.1875 C 0.832031 -0.226562 0.859375 -0.273438 0.859375 -0.328125 C 0.859375 -0.367188 0.84375 -0.398438 0.8125 -0.421875 C 0.789062 -0.453125 0.757812 -0.472656 0.71875 -0.484375 C 0.675781 -0.503906 0.617188 -0.523438 0.546875 -0.546875 C 0.453125 -0.566406 0.375 -0.585938 0.3125 -0.609375 C 0.25 -0.628906 0.195312 -0.660156 0.15625 -0.703125 C 0.125 -0.753906 0.109375 -0.820312 0.109375 -0.90625 C 0.109375 -0.96875 0.125 -1.023438 0.15625 -1.078125 C 0.1875 -1.140625 0.238281 -1.1875 0.3125 -1.21875 C 0.382812 -1.25 0.472656 -1.265625 0.578125 -1.265625 C 0.648438 -1.265625 0.722656 -1.253906 0.796875 -1.234375 C 0.867188 -1.210938 0.929688 -1.1875 0.984375 -1.15625 L 0.921875 -1.015625 C 0.867188 -1.046875 0.8125 -1.066406 0.75 -1.078125 C 0.695312 -1.097656 0.640625 -1.109375 0.578125 -1.109375 C 0.472656 -1.109375 0.394531 -1.085938 0.34375 -1.046875 C 0.300781 -1.015625 0.28125 -0.96875 0.28125 -0.90625 C 0.28125 -0.863281 0.289062 -0.828125 0.3125 -0.796875 C 0.34375 -0.773438 0.378906 -0.753906 0.421875 -0.734375 C 0.460938 -0.722656 0.519531 -0.710938 0.59375 -0.703125 C 0.6875 -0.679688 0.757812 -0.65625 0.8125 -0.625 C 0.875 -0.601562 0.925781 -0.566406 0.96875 -0.515625 C 1.007812 -0.472656 1.03125 -0.414062 1.03125 -0.34375 C 1.03125 -0.28125 1.007812 -0.21875 0.96875 -0.15625 C 0.9375 -0.101562 0.882812 -0.0625 0.8125 -0.03125 C 0.738281 0 0.648438 0.015625 0.546875 0.015625 Z M 0.546875 0.015625 "/></g></g><g style="fill:#242424;fill-opacity:1;"><g transform="translate(12.009489, 26.272818)"><path style="stroke:none" d=""/></g></g><g style="fill:#242424;fill-opacity:1;"><g transform="translate(12.503541, 26.272818)"><path style="stroke:none" d="M 0.984375 -0.640625 C 1.066406 -0.617188 1.128906 -0.582031 1.171875 -0.53125 C 1.222656 -0.476562 1.25 -0.410156 1.25 -0.328125 C 1.25 -0.222656 1.207031 -0.140625 1.125 -0.078125 C 1.050781 -0.0234375 0.9375 0 0.78125 0 L 0.203125 0 L 0.203125 -1.25 L 0.734375 -1.25 C 0.878906 -1.25 0.988281 -1.21875 1.0625 -1.15625 C 1.132812 -1.101562 1.171875 -1.023438 1.171875 -0.921875 C 1.171875 -0.859375 1.15625 -0.800781 1.125 -0.75 C 1.09375 -0.695312 1.046875 -0.660156 0.984375 -0.640625 Z M 0.328125 -1.140625 L 0.328125 -0.6875 L 0.734375 -0.6875 C 0.835938 -0.6875 0.914062 -0.703125 0.96875 -0.734375 C 1.019531 -0.773438 1.046875 -0.832031 1.046875 -0.90625 C 1.046875 -0.976562 1.019531 -1.035156 0.96875 -1.078125 C 0.914062 -1.117188 0.835938 -1.140625 0.734375 -1.140625 Z M 0.78125 -0.109375 C 0.882812 -0.109375 0.960938 -0.125 1.015625 -0.15625 C 1.078125 -0.195312 1.109375 -0.257812 1.109375 -0.34375 C 1.109375 -0.5 1 -0.578125 0.78125 -0.578125 L 0.328125 -0.578125 L 0.328125 -0.109375 Z M 0.78125 -0.109375 "/></g></g><g style="fill:#242424;fill-opacity:1;"><g transform="translate(13.871961, 26.272818)"><path style="stroke:none" d="M 0.203125 -1.25 L 0.328125 -1.25 L 0.328125 0 L 0.203125 0 Z M 0.203125 -1.25 "/></g></g><g style="fill:#242424;fill-opacity:1;"><g transform="translate(14.437099, 26.272818)"><path style="stroke:none" d="M 1.078125 -0.109375 L 1.078125 0 L 0.203125 0 L 0.203125 -1.25 L 1.0625 -1.25 L 1.0625 -1.140625 L 0.328125 -1.140625 L 0.328125 -0.6875 L 0.984375 -0.6875 L 0.984375 -0.578125 L 0.328125 -0.578125 L 0.328125 -0.109375 Z M 1.078125 -0.109375 "/></g></g><g style="fill:#242424;fill-opacity:1;"><g transform="translate(15.65446, 26.272818)"><path style="stroke:none" d="M 1.25 -1.25 L 1.25 0 L 1.140625 0 L 0.328125 -1.015625 L 0.328125 0 L 0.203125 0 L 0.203125 -1.25 L 0.3125 -1.25 L 1.109375 -0.234375 L 1.109375 -1.25 Z M 1.25 -1.25 "/></g></g><g style="fill:#242424;fill-opacity:1;"><g transform="translate(17.127734, 26.272818)"><path style="stroke:none" d="M 0.546875 0.015625 C 0.453125 0.015625 0.363281 0 0.28125 -0.03125 C 0.195312 -0.0625 0.128906 -0.101562 0.078125 -0.15625 L 0.140625 -0.25 C 0.179688 -0.207031 0.238281 -0.171875 0.3125 -0.140625 C 0.382812 -0.109375 0.460938 -0.09375 0.546875 -0.09375 C 0.660156 -0.09375 0.742188 -0.113281 0.796875 -0.15625 C 0.847656 -0.195312 0.875 -0.253906 0.875 -0.328125 C 0.875 -0.367188 0.859375 -0.40625 0.828125 -0.4375 C 0.804688 -0.46875 0.769531 -0.488281 0.71875 -0.5 C 0.675781 -0.519531 0.617188 -0.539062 0.546875 -0.5625 C 0.453125 -0.582031 0.375 -0.601562 0.3125 -0.625 C 0.257812 -0.65625 0.210938 -0.691406 0.171875 -0.734375 C 0.128906 -0.773438 0.109375 -0.835938 0.109375 -0.921875 C 0.109375 -0.984375 0.125 -1.039062 0.15625 -1.09375 C 0.195312 -1.144531 0.25 -1.179688 0.3125 -1.203125 C 0.382812 -1.234375 0.472656 -1.25 0.578125 -1.25 C 0.648438 -1.25 0.71875 -1.238281 0.78125 -1.21875 C 0.851562 -1.207031 0.910156 -1.179688 0.953125 -1.140625 L 0.921875 -1.046875 C 0.867188 -1.078125 0.8125 -1.097656 0.75 -1.109375 C 0.6875 -1.128906 0.628906 -1.140625 0.578125 -1.140625 C 0.460938 -1.140625 0.378906 -1.117188 0.328125 -1.078125 C 0.273438 -1.035156 0.25 -0.984375 0.25 -0.921875 C 0.25 -0.867188 0.257812 -0.828125 0.28125 -0.796875 C 0.3125 -0.765625 0.347656 -0.738281 0.390625 -0.71875 C 0.441406 -0.707031 0.507812 -0.691406 0.59375 -0.671875 C 0.675781 -0.648438 0.742188 -0.628906 0.796875 -0.609375 C 0.859375 -0.585938 0.910156 -0.550781 0.953125 -0.5 C 0.992188 -0.457031 1.015625 -0.398438 1.015625 -0.328125 C 1.015625 -0.265625 0.992188 -0.207031 0.953125 -0.15625 C 0.921875 -0.101562 0.867188 -0.0625 0.796875 -0.03125 C 0.734375 0 0.648438 0.015625 0.546875 0.015625 Z M 0.546875 0.015625 "/></g></g><g style="fill:#242424;fill-opacity:1;"><g transform="translate(18.249126, 26.272818)"><path style="stroke:none" d=""/></g></g><g style="fill:#242424;fill-opacity:1;"><g transform="translate(18.743178, 26.272818)"><path style="stroke:none" d="M 0.203125 -1.25 L 0.328125 -1.25 L 0.328125 0 L 0.203125 0 Z M 0.203125 -1.25 "/></g></g><g style="fill:#242424;fill-opacity:1;"><g transform="translate(19.308316, 26.272818)"><path style="stroke:none" d="M 1.5 -1.25 L 1.5 0 L 1.375 0 L 1.375 -1 L 0.875 -0.15625 L 0.8125 -0.15625 L 0.328125 -0.984375 L 0.328125 0 L 0.203125 0 L 0.203125 -1.25 L 0.3125 -1.25 L 0.859375 -0.328125 L 1.390625 -1.25 Z M 1.5 -1.25 "/></g></g><g style="fill:#242424;fill-opacity:1;"><g transform="translate(21.033948, 26.272818)"><path style="stroke:none" d="M 1.5 -1.25 L 1.5 0 L 1.375 0 L 1.375 -1 L 0.875 -0.15625 L 0.8125 -0.15625 L 0.328125 -0.984375 L 0.328125 0 L 0.203125 0 L 0.203125 -1.25 L 0.3125 -1.25 L 0.859375 -0.328125 L 1.390625 -1.25 Z M 1.5 -1.25 "/></g></g><g style="fill:#242424;fill-opacity:1;"><g transform="translate(22.759579, 26.272818)"><path style="stroke:none" d="M 0.75 0.015625 C 0.625 0.015625 0.507812 -0.0078125 0.40625 -0.0625 C 0.3125 -0.125 0.234375 -0.203125 0.171875 -0.296875 C 0.117188 -0.390625 0.09375 -0.5 0.09375 -0.625 C 0.09375 -0.738281 0.117188 -0.84375 0.171875 -0.9375 C 0.234375 -1.039062 0.3125 -1.117188 0.40625 -1.171875 C 0.507812 -1.222656 0.625 -1.25 0.75 -1.25 C 0.875 -1.25 0.984375 -1.222656 1.078125 -1.171875 C 1.179688 -1.117188 1.257812 -1.039062 1.3125 -0.9375 C 1.375 -0.84375 1.40625 -0.738281 1.40625 -0.625 C 1.40625 -0.5 1.375 -0.390625 1.3125 -0.296875 C 1.257812 -0.203125 1.179688 -0.125 1.078125 -0.0625 C 0.984375 -0.0078125 0.875 0.015625 0.75 0.015625 Z M 0.75 -0.109375 C 0.84375 -0.109375 0.929688 -0.128906 1.015625 -0.171875 C 1.097656 -0.210938 1.160156 -0.273438 1.203125 -0.359375 C 1.242188 -0.441406 1.265625 -0.53125 1.265625 -0.625 C 1.265625 -0.71875 1.242188 -0.800781 1.203125 -0.875 C 1.160156 -0.957031 1.097656 -1.019531 1.015625 -1.0625 C 0.929688 -1.113281 0.84375 -1.140625 0.75 -1.140625 C 0.644531 -1.140625 0.550781 -1.113281 0.46875 -1.0625 C 0.394531 -1.019531 0.332031 -0.957031 0.28125 -0.875 C 0.238281 -0.800781 0.21875 -0.71875 0.21875 -0.625 C 0.21875 -0.53125 0.238281 -0.441406 0.28125 -0.359375 C 0.332031 -0.273438 0.394531 -0.210938 0.46875 -0.171875 C 0.550781 -0.128906 0.644531 -0.109375 0.75 -0.109375 Z M 0.75 -0.109375 "/></g></g><g style="fill:#242424;fill-opacity:1;"><g transform="translate(24.279058, 26.272818)"><path style="stroke:none" d="M 0.984375 -0.640625 C 1.066406 -0.617188 1.128906 -0.582031 1.171875 -0.53125 C 1.222656 -0.476562 1.25 -0.410156 1.25 -0.328125 C 1.25 -0.222656 1.207031 -0.140625 1.125 -0.078125 C 1.050781 -0.0234375 0.9375 0 0.78125 0 L 0.203125 0 L 0.203125 -1.25 L 0.734375 -1.25 C 0.878906 -1.25 0.988281 -1.21875 1.0625 -1.15625 C 1.132812 -1.101562 1.171875 -1.023438 1.171875 -0.921875 C 1.171875 -0.859375 1.15625 -0.800781 1.125 -0.75 C 1.09375 -0.695312 1.046875 -0.660156 0.984375 -0.640625 Z M 0.328125 -1.140625 L 0.328125 -0.6875 L 0.734375 -0.6875 C 0.835938 -0.6875 0.914062 -0.703125 0.96875 -0.734375 C 1.019531 -0.773438 1.046875 -0.832031 1.046875 -0.90625 C 1.046875 -0.976562 1.019531 -1.035156 0.96875 -1.078125 C 0.914062 -1.117188 0.835938 -1.140625 0.734375 -1.140625 Z M 0.78125 -0.109375 C 0.882812 -0.109375 0.960938 -0.125 1.015625 -0.15625 C 1.078125 -0.195312 1.109375 -0.257812 1.109375 -0.34375 C 1.109375 -0.5 1 -0.578125 0.78125 -0.578125 L 0.328125 -0.578125 L 0.328125 -0.109375 Z M 0.78125 -0.109375 "/></g></g><g style="fill:#242424;fill-opacity:1;"><g transform="translate(25.647478, 26.272818)"><path style="stroke:none" d="M 0.203125 -1.25 L 0.328125 -1.25 L 0.328125 0 L 0.203125 0 Z M 0.203125 -1.25 "/></g></g><g style="fill:#242424;fill-opacity:1;"><g transform="translate(26.212616, 26.272818)"><path style="stroke:none" d="M 0.203125 -1.25 L 0.328125 -1.25 L 0.328125 -0.109375 L 1.03125 -0.109375 L 1.03125 0 L 0.203125 0 Z M 0.203125 -1.25 "/></g></g><g style="fill:#242424;fill-opacity:1;"><g transform="translate(27.287803, 26.272818)"><path style="stroke:none" d="M 0.203125 -1.25 L 0.328125 -1.25 L 0.328125 0 L 0.203125 0 Z M 0.203125 -1.25 "/></g></g><g style="fill:#242424;fill-opacity:1;"><g transform="translate(27.852941, 26.272818)"><path style="stroke:none" d="M 1.078125 -0.109375 L 1.078125 0 L 0.203125 0 L 0.203125 -1.25 L 1.0625 -1.25 L 1.0625 -1.140625 L 0.328125 -1.140625 L 0.328125 -0.6875 L 0.984375 -0.6875 L 0.984375 -0.578125 L 0.328125 -0.578125 L 0.328125 -0.109375 Z M 1.078125 -0.109375 "/></g></g><g style="fill:#242424;fill-opacity:1;"><g transform="translate(29.070302, 26.272818)"><path style="stroke:none" d="M 1.046875 0 L 0.765625 -0.40625 C 0.734375 -0.394531 0.703125 -0.390625 0.671875 -0.390625 L 0.328125 -0.390625 L 0.328125 0 L 0.203125 0 L 0.203125 -1.25 L 0.671875 -1.25 C 0.828125 -1.25 0.945312 -1.207031 1.03125 -1.125 C 1.125 -1.050781 1.171875 -0.945312 1.171875 -0.8125 C 1.171875 -0.71875 1.144531 -0.632812 1.09375 -0.5625 C 1.050781 -0.5 0.984375 -0.453125 0.890625 -0.421875 L 1.203125 0 Z M 0.671875 -0.5 C 0.785156 -0.5 0.875 -0.523438 0.9375 -0.578125 C 1.007812 -0.640625 1.046875 -0.71875 1.046875 -0.8125 C 1.046875 -0.914062 1.007812 -0.992188 0.9375 -1.046875 C 0.875 -1.109375 0.785156 -1.140625 0.671875 -1.140625 L 0.328125 -1.140625 L 0.328125 -0.5 Z M 0.671875 -0.5 "/></g></g><g style="fill:#242424;fill-opacity:1;"><g transform="translate(30.383629, 26.272818)"><path style="stroke:none" d="M 0.546875 0.015625 C 0.453125 0.015625 0.363281 0 0.28125 -0.03125 C 0.195312 -0.0625 0.128906 -0.101562 0.078125 -0.15625 L 0.140625 -0.25 C 0.179688 -0.207031 0.238281 -0.171875 0.3125 -0.140625 C 0.382812 -0.109375 0.460938 -0.09375 0.546875 -0.09375 C 0.660156 -0.09375 0.742188 -0.113281 0.796875 -0.15625 C 0.847656 -0.195312 0.875 -0.253906 0.875 -0.328125 C 0.875 -0.367188 0.859375 -0.40625 0.828125 -0.4375 C 0.804688 -0.46875 0.769531 -0.488281 0.71875 -0.5 C 0.675781 -0.519531 0.617188 -0.539062 0.546875 -0.5625 C 0.453125 -0.582031 0.375 -0.601562 0.3125 -0.625 C 0.257812 -0.65625 0.210938 -0.691406 0.171875 -0.734375 C 0.128906 -0.773438 0.109375 -0.835938 0.109375 -0.921875 C 0.109375 -0.984375 0.125 -1.039062 0.15625 -1.09375 C 0.195312 -1.144531 0.25 -1.179688 0.3125 -1.203125 C 0.382812 -1.234375 0.472656 -1.25 0.578125 -1.25 C 0.648438 -1.25 0.71875 -1.238281 0.78125 -1.21875 C 0.851562 -1.207031 0.910156 -1.179688 0.953125 -1.140625 L 0.921875 -1.046875 C 0.867188 -1.078125 0.8125 -1.097656 0.75 -1.109375 C 0.6875 -1.128906 0.628906 -1.140625 0.578125 -1.140625 C 0.460938 -1.140625 0.378906 -1.117188 0.328125 -1.078125 C 0.273438 -1.035156 0.25 -0.984375 0.25 -0.921875 C 0.25 -0.867188 0.257812 -0.828125 0.28125 -0.796875 C 0.3125 -0.765625 0.347656 -0.738281 0.390625 -0.71875 C 0.441406 -0.707031 0.507812 -0.691406 0.59375 -0.671875 C 0.675781 -0.648438 0.742188 -0.628906 0.796875 -0.609375 C 0.859375 -0.585938 0.910156 -0.550781 0.953125 -0.5 C 0.992188 -0.457031 1.015625 -0.398438 1.015625 -0.328125 C 1.015625 -0.265625 0.992188 -0.207031 0.953125 -0.15625 C 0.921875 -0.101562 0.867188 -0.0625 0.796875 -0.03125 C 0.734375 0 0.648438 0.015625 0.546875 0.015625 Z M 0.546875 0.015625 "/></g></g><g style="fill:#242424;fill-opacity:1;"><g transform="translate(31.505022, 26.272818)"><path style="stroke:none" d=""/></g></g><g style="fill:#242424;fill-opacity:1;"><g transform="translate(31.999074, 26.272818)"><path style="stroke:none" d="M 0.984375 -0.328125 L 0.296875 -0.328125 L 0.140625 0 L 0 0 L 0.578125 -1.25 L 0.703125 -1.25 L 1.28125 0 L 1.140625 0 Z M 0.9375 -0.4375 L 0.640625 -1.109375 L 0.34375 -0.4375 Z M 0.34375 -1.5625 L 0.515625 -1.5625 L 0.75 -1.34375 L 0.625 -1.34375 Z M 0.34375 -1.5625 "/></g></g><g style="fill:#242424;fill-opacity:1;"><g transform="translate(33.301739, 26.272818)"><path style="stroke:none" d=""/></g></g><g style="fill:#242424;fill-opacity:1;"><g transform="translate(33.795791, 26.272818)"><path style="stroke:none" d="M 1.5 -1.25 L 1.5 0 L 1.375 0 L 1.375 -1 L 0.875 -0.15625 L 0.8125 -0.15625 L 0.328125 -0.984375 L 0.328125 0 L 0.203125 0 L 0.203125 -1.25 L 0.3125 -1.25 L 0.859375 -0.328125 L 1.390625 -1.25 Z M 1.5 -1.25 "/></g></g><g style="fill:#242424;fill-opacity:1;"><g transform="translate(35.521422, 26.272818)"><path style="stroke:none" d="M 0.984375 -0.328125 L 0.296875 -0.328125 L 0.140625 0 L 0 0 L 0.578125 -1.25 L 0.703125 -1.25 L 1.28125 0 L 1.140625 0 Z M 0.9375 -0.4375 L 0.640625 -1.109375 L 0.34375 -0.4375 Z M 0.9375 -0.4375 "/></g></g><g style="fill:#242424;fill-opacity:1;"><g transform="translate(36.824087, 26.272818)"><path style="stroke:none" d="M 1.046875 0 L 0.765625 -0.40625 C 0.734375 -0.394531 0.703125 -0.390625 0.671875 -0.390625 L 0.328125 -0.390625 L 0.328125 0 L 0.203125 0 L 0.203125 -1.25 L 0.671875 -1.25 C 0.828125 -1.25 0.945312 -1.207031 1.03125 -1.125 C 1.125 -1.050781 1.171875 -0.945312 1.171875 -0.8125 C 1.171875 -0.71875 1.144531 -0.632812 1.09375 -0.5625 C 1.050781 -0.5 0.984375 -0.453125 0.890625 -0.421875 L 1.203125 0 Z M 0.671875 -0.5 C 0.785156 -0.5 0.875 -0.523438 0.9375 -0.578125 C 1.007812 -0.640625 1.046875 -0.71875 1.046875 -0.8125 C 1.046875 -0.914062 1.007812 -0.992188 0.9375 -1.046875 C 0.875 -1.109375 0.785156 -1.140625 0.671875 -1.140625 L 0.328125 -1.140625 L 0.328125 -0.5 Z M 0.671875 -0.5 "/></g></g><g style="fill:#242424;fill-opacity:1;"><g transform="translate(38.137414, 26.272818)"><path style="stroke:none" d="M 1.046875 0 L 0.765625 -0.40625 C 0.734375 -0.394531 0.703125 -0.390625 0.671875 -0.390625 L 0.328125 -0.390625 L 0.328125 0 L 0.203125 0 L 0.203125 -1.25 L 0.671875 -1.25 C 0.828125 -1.25 0.945312 -1.207031 1.03125 -1.125 C 1.125 -1.050781 1.171875 -0.945312 1.171875 -0.8125 C 1.171875 -0.71875 1.144531 -0.632812 1.09375 -0.5625 C 1.050781 -0.5 0.984375 -0.453125 0.890625 -0.421875 L 1.203125 0 Z M 0.671875 -0.5 C 0.785156 -0.5 0.875 -0.523438 0.9375 -0.578125 C 1.007812 -0.640625 1.046875 -0.71875 1.046875 -0.8125 C 1.046875 -0.914062 1.007812 -0.992188 0.9375 -1.046875 C 0.875 -1.109375 0.785156 -1.140625 0.671875 -1.140625 L 0.328125 -1.140625 L 0.328125 -0.5 Z M 0.671875 -0.5 "/></g></g><g style="fill:#242424;fill-opacity:1;"><g transform="translate(39.450741, 26.272818)"><path style="stroke:none" d="M 0.984375 -0.328125 L 0.296875 -0.328125 L 0.140625 0 L 0 0 L 0.578125 -1.25 L 0.703125 -1.25 L 1.28125 0 L 1.140625 0 Z M 0.9375 -0.4375 L 0.640625 -1.109375 L 0.34375 -0.4375 Z M 0.9375 -0.4375 "/></g></g><g style="fill:#242424;fill-opacity:1;"><g transform="translate(40.753406, 26.272818)"><path style="stroke:none" d="M 0.59375 -0.59375 L 0.328125 -0.328125 L 0.328125 0 L 0.203125 0 L 0.203125 -1.25 L 0.328125 -1.25 L 0.328125 -0.5 L 1.0625 -1.25 L 1.21875 -1.25 L 0.671875 -0.6875 L 1.25 0 L 1.09375 0 Z M 0.59375 -0.59375 "/></g></g><g style="fill:#242424;fill-opacity:1;"><g transform="translate(42.045407, 26.272818)"><path style="stroke:none" d="M 1.078125 -0.109375 L 1.078125 0 L 0.203125 0 L 0.203125 -1.25 L 1.0625 -1.25 L 1.0625 -1.140625 L 0.328125 -1.140625 L 0.328125 -0.6875 L 0.984375 -0.6875 L 0.984375 -0.578125 L 0.328125 -0.578125 L 0.328125 -0.109375 Z M 1.078125 -0.109375 "/></g></g><g style="fill:#242424;fill-opacity:1;"><g transform="translate(43.262768, 26.272818)"><path style="stroke:none" d="M 0.75 0.015625 C 0.625 0.015625 0.507812 -0.0078125 0.40625 -0.0625 C 0.3125 -0.125 0.234375 -0.203125 0.171875 -0.296875 C 0.117188 -0.390625 0.09375 -0.5 0.09375 -0.625 C 0.09375 -0.738281 0.117188 -0.84375 0.171875 -0.9375 C 0.234375 -1.039062 0.3125 -1.117188 0.40625 -1.171875 C 0.507812 -1.222656 0.625 -1.25 0.75 -1.25 C 0.84375 -1.25 0.925781 -1.234375 1 -1.203125 C 1.082031 -1.179688 1.148438 -1.140625 1.203125 -1.078125 L 1.125 -0.984375 C 1.019531 -1.085938 0.894531 -1.140625 0.75 -1.140625 C 0.65625 -1.140625 0.566406 -1.113281 0.484375 -1.0625 C 0.398438 -1.019531 0.332031 -0.957031 0.28125 -0.875 C 0.238281 -0.800781 0.21875 -0.71875 0.21875 -0.625 C 0.21875 -0.53125 0.238281 -0.441406 0.28125 -0.359375 C 0.332031 -0.285156 0.398438 -0.222656 0.484375 -0.171875 C 0.566406 -0.128906 0.65625 -0.109375 0.75 -0.109375 C 0.894531 -0.109375 1.019531 -0.15625 1.125 -0.25 L 1.203125 -0.171875 C 1.148438 -0.109375 1.082031 -0.0625 1 -0.03125 C 0.925781 0 0.84375 0.015625 0.75 0.015625 Z M 0.75 0.015625 "/></g></g><g style="fill:#242424;fill-opacity:1;"><g transform="translate(44.568987, 26.272818)"><path style="stroke:none" d="M 1.25 -1.25 L 1.25 0 L 1.109375 0 L 1.109375 -0.578125 L 0.328125 -0.578125 L 0.328125 0 L 0.203125 0 L 0.203125 -1.25 L 0.328125 -1.25 L 0.328125 -0.6875 L 1.109375 -0.6875 L 1.109375 -1.25 Z M 1.25 -1.25 "/></g></g><g style="fill:#242424;fill-opacity:1;"><g transform="translate(46.042261, 26.272818)"><path style="stroke:none" d=""/></g></g><g style="fill:#242424;fill-opacity:1;"><g transform="translate(46.536313, 26.272818)"><path style="stroke:none" d="M 1.078125 -0.109375 L 1.078125 0 L 0.203125 0 L 0.203125 -1.25 L 1.0625 -1.25 L 1.0625 -1.140625 L 0.328125 -1.140625 L 0.328125 -0.6875 L 0.984375 -0.6875 L 0.984375 -0.578125 L 0.328125 -0.578125 L 0.328125 -0.109375 Z M 1.078125 -0.109375 "/></g></g><g style="fill:#242424;fill-opacity:1;"><g transform="translate(47.753674, 26.272818)"><path style="stroke:none" d="M 0.4375 -1.140625 L 0 -1.140625 L 0 -1.25 L 1.015625 -1.25 L 1.015625 -1.140625 L 0.578125 -1.140625 L 0.578125 0 L 0.4375 0 Z M 0.4375 -1.140625 "/></g></g><g style="fill:#242424;fill-opacity:1;"><g transform="translate(48.802202, 26.272818)"><path style="stroke:none" d=""/></g></g><g style="fill:#242424;fill-opacity:1;"><g transform="translate(49.296255, 26.272818)"><path style="stroke:none" d="M 0.984375 -0.328125 L 0.296875 -0.328125 L 0.140625 0 L 0 0 L 0.578125 -1.25 L 0.703125 -1.25 L 1.28125 0 L 1.140625 0 Z M 0.9375 -0.4375 L 0.640625 -1.109375 L 0.34375 -0.4375 Z M 0.9375 -0.4375 "/></g></g><g style="fill:#242424;fill-opacity:1;"><g transform="translate(50.59892, 26.272818)"><path style="stroke:none" d="M 0.703125 0.015625 C 0.546875 0.015625 0.421875 -0.03125 0.328125 -0.125 C 0.234375 -0.21875 0.1875 -0.351562 0.1875 -0.53125 L 0.1875 -1.25 L 0.328125 -1.25 L 0.328125 -0.53125 C 0.328125 -0.394531 0.359375 -0.289062 0.421875 -0.21875 C 0.484375 -0.144531 0.578125 -0.109375 0.703125 -0.109375 C 0.828125 -0.109375 0.921875 -0.144531 0.984375 -0.21875 C 1.054688 -0.289062 1.09375 -0.394531 1.09375 -0.53125 L 1.09375 -1.25 L 1.21875 -1.25 L 1.21875 -0.53125 C 1.21875 -0.351562 1.171875 -0.21875 1.078125 -0.125 C 0.992188 -0.03125 0.867188 0.015625 0.703125 0.015625 Z M 0.703125 0.015625 "/></g></g><g style="fill:#242424;fill-opacity:1;"><g transform="translate(52.034875, 26.272818)"><path style="stroke:none" d="M 0.109375 -0.53125 L 0.578125 -0.53125 L 0.578125 -0.421875 L 0.109375 -0.421875 Z M 0.109375 -0.53125 "/></g></g><g style="fill:#242424;fill-opacity:1;"><g transform="translate(52.742184, 26.272818)"><path style="stroke:none" d="M 0.203125 -1.25 L 0.703125 -1.25 C 0.835938 -1.25 0.957031 -1.222656 1.0625 -1.171875 C 1.164062 -1.117188 1.242188 -1.046875 1.296875 -0.953125 C 1.347656 -0.859375 1.375 -0.75 1.375 -0.625 C 1.375 -0.5 1.347656 -0.390625 1.296875 -0.296875 C 1.242188 -0.203125 1.164062 -0.128906 1.0625 -0.078125 C 0.957031 -0.0234375 0.835938 0 0.703125 0 L 0.203125 0 Z M 0.703125 -0.109375 C 0.816406 -0.109375 0.910156 -0.128906 0.984375 -0.171875 C 1.066406 -0.222656 1.128906 -0.285156 1.171875 -0.359375 C 1.222656 -0.429688 1.25 -0.519531 1.25 -0.625 C 1.25 -0.71875 1.222656 -0.800781 1.171875 -0.875 C 1.128906 -0.957031 1.066406 -1.019531 0.984375 -1.0625 C 0.910156 -1.113281 0.816406 -1.140625 0.703125 -1.140625 L 0.328125 -1.140625 L 0.328125 -0.109375 Z M 0.703125 -0.109375 "/></g></g><g style="fill:#242424;fill-opacity:1;"><g transform="translate(54.238562, 26.272818)"><path style="stroke:none" d="M 1.078125 -0.109375 L 1.078125 0 L 0.203125 0 L 0.203125 -1.25 L 1.0625 -1.25 L 1.0625 -1.140625 L 0.328125 -1.140625 L 0.328125 -0.6875 L 0.984375 -0.6875 L 0.984375 -0.578125 L 0.328125 -0.578125 L 0.328125 -0.109375 Z M 1.078125 -0.109375 "/></g></g><g style="fill:#242424;fill-opacity:1;"><g transform="translate(55.45592, 26.272818)"><path style="stroke:none" d="M 0.203125 -1.25 L 0.328125 -1.25 L 0.328125 -0.109375 L 1.03125 -0.109375 L 1.03125 0 L 0.203125 0 Z M 0.203125 -1.25 "/></g></g><g style="fill:#242424;fill-opacity:1;"><g transform="translate(56.531107, 26.272818)"><path style="stroke:none" d="M 0.984375 -0.328125 L 0.296875 -0.328125 L 0.140625 0 L 0 0 L 0.578125 -1.25 L 0.703125 -1.25 L 1.28125 0 L 1.140625 0 Z M 0.9375 -0.4375 L 0.640625 -1.109375 L 0.34375 -0.4375 Z M 0.34375 -1.5625 L 0.515625 -1.5625 L 0.75 -1.34375 L 0.625 -1.34375 Z M 0.34375 -1.5625 "/></g></g></g></svg>